<?xml version="1.0" ?><svg enable-background="new 0 0 64 64" version="1.1" viewBox="0 0 64 64" xml:space="preserve" xmlns="http://www.w3.org/2000/svg" xmlns:xlink="http://www.w3.org/1999/xlink"><g id="Grid"/><g id="row_3"/><g id="row_2"/><g id="row_1"><g id="transfer_x5F_money"><path d="M32,12c11,0,20,9,20,20s-9,20-20,20s-20-9-20-20S21,12,32,12 M32,8C18.7,8,8,18.7,8,32s10.7,24,24,24    s24-10.7,24-24S45.3,8,32,8L32,8z" fill="#F44336"/><rect fill="#263238" height="63.8" transform="matrix(0.5328 -0.8462 0.8462 0.5328 -12.1295 42.0294)" width="1" x="31.5" y="0.1"/><path d="M14.3,15.8c0.2-0.2,0.5-0.5,0.7-0.7c9.4-9.4,24.6-9.4,33.9,0c3.3,3.3,5.5,7.4,6.4,11.7l2-0.4    c-1-4.6-3.4-9-7-12.6c-10.2-10.2-26.6-10.2-36.8,0c-0.2,0.2-0.5,0.5-0.7,0.7L14.3,15.8z" fill="#FFC107"/><path d="M44.7,44.7c-7,7-18.4,7-25.5,0c-2.5-2.5-4.1-5.5-4.8-8.7l-2,0.4c0.8,3.6,2.6,6.9,5.3,9.7    c7.8,7.8,20.5,7.8,28.3,0c0.2-0.2,0.4-0.5,0.7-0.7L45.4,44C45.2,44.2,45,44.5,44.7,44.7z" fill="#01579B"/><g><path d="M38,53H8c-0.8-0.8-1.2-1.2-2-2V33c0.8-0.8,1.2-1.2,2-2h30c0.8,0.8,1.2,1.2,2,2v18     C39.2,51.8,38.8,52.2,38,53z" fill="#01579B"/><rect fill="#263238" height="4" width="34" x="6" y="35"/><rect fill="#FFECB3" height="3" width="14" x="16" y="41"/></g><g><path d="M56,33H26c-0.8-0.8-1.2-1.2-2-2V13c0.8-0.8,1.2-1.2,2-2h30c0.8,0.8,1.2,1.2,2,2v18     C57.2,31.8,56.8,32.2,56,33z" fill="#FFC107"/><rect fill="#263238" height="4" width="34" x="24" y="15"/><rect fill="#FFECB3" height="3" width="14" x="34" y="21"/></g><path d="M56,31c0,0.3,0,0.7,0,1c0,13.2-10.8,24-24,24c-4.7,0-9.1-1.4-12.8-3.7L18.1,54c4,2.5,8.8,4,13.9,4    c14.4,0,26-11.6,26-26c0-0.3,0-0.7,0-1H56z" fill="#FFC107"/><path d="M14,32c0-9.9,8.1-18,18-18c3.5,0,6.8,1,9.6,2.8l1.1-1.7C39.6,13.1,35.9,12,32,12c-11,0-20,9-20,20    c0,0.3,0,0.7,0.1,1h2C14,32.7,14,32.3,14,32z" fill="#01579B"/></g></g></svg>