<?xml version="1.0" ?><svg xmlns="http://www.w3.org/2000/svg" xmlns:xlink="http://www.w3.org/1999/xlink" version="1.1" viewBox="0 0 512 512" style="enable-background:new 0 0 512 512;" xml:space="preserve"><g id="_x33_7_x2C__Voltmeter_x2C__power_meter_x2C__Multimeter_x2C__measure_x2C__electronics_x2C__meter_x2C__energy_x2C__power"><g><g><path style="fill:#283954;" d="M491,102.72V71c0-5.522-4.478-10-10-10s-10,4.478-10,10v31.72c-11.639,4.128-20,15.243-20,28.28     v50c0,13.036,8.361,24.152,20,28.28V381c0,60.654-49.346,110-110,110H191c-42.661,0-79.728-24.412-97.965-60h168.728     c13.854,23.888,39.691,40,69.237,40c44.112,0,80-35.888,80-80V209.28c11.639-4.128,20-15.243,20-28.28v-50     c0-13.036-8.361-24.152-20-28.28V71c0-5.522-4.478-10-10-10s-10,4.478-10,10v31.72c-11.639,4.128-20,15.243-20,28.28v50     c0,13.036,8.361,24.152,20,28.28V391c0,33.084-26.916,60-60,60c-17.729,0-33.679-7.735-44.673-20H301c16.542,0,30-13.458,30-30     V31c0-16.542-13.458-30-30-30H31C14.458,1,1,14.458,1,31v370c0,16.542,13.458,30,30,30h40.006c19.63,46.936,66.021,80,119.994,80     h170c71.683,0,130-58.317,130-130V209.28c11.639-4.128,20-15.243,20-28.28v-50C511,117.964,502.639,106.848,491,102.72z M391,131     c0-5.514,4.486-10,10-10s10,4.486,10,10v50c0,5.514-4.486,10-10,10s-10-4.486-10-10V131z M31,411c-5.514,0-10-4.486-10-10V31     c0-5.514,4.486-10,10-10h270c5.514,0,10,4.486,10,10v370c0,5.514-4.486,10-10,10h-26.56c-2.22-6.26-3.44-12.989-3.44-20v-1.72     c11.639-4.128,20-15.244,20-28.28c0-16.542-13.458-30-30-30s-30,13.458-30,30c0,13.036,8.361,24.152,20,28.28V391     c0,6.903,0.88,13.605,2.531,20H85.158c-1.991-7.017-3.3-14.316-3.854-21.823C92.786,384.965,101,373.924,101,361     c0-16.542-13.458-30-30-30s-30,13.458-30,30c0,13.139,8.494,24.325,20.277,28.374c0.472,7.392,1.561,14.618,3.223,21.626H31z      M261,371c-5.514,0-10-4.486-10-10s4.486-10,10-10s10,4.486,10,10S266.514,371,261,371z M71,371c-5.514,0-10-4.486-10-10     s4.486-10,10-10s10,4.486,10,10S76.514,371,71,371z M491,181c0,5.514-4.486,10-10,10s-10-4.486-10-10v-50c0-5.514,4.486-10,10-10     s10,4.486,10,10V181z"/></g><g><path style="fill:#5596FB;" d="M281,41H51c-5.522,0-10,4.478-10,10v70c0,5.522,4.478,10,10,10h230c5.522,0,10-4.478,10-10V51     C291,45.478,286.522,41,281,41z M271,111H61V61h210V111z"/><path style="fill:#5596FB;" d="M166,151c-12.302,0-24.451,2.681-35.539,7.784c-11.672-7.958-27.754-6.77-38.101,3.577     c-10.346,10.347-11.533,26.428-3.576,38.101C83.681,211.548,81,223.698,81,236c0,46.869,38.131,85,85,85     c12.302,0,24.451-2.681,35.539-7.784c11.762,8.018,27.821,6.703,38.101-3.577c10.346-10.347,11.533-26.428,3.576-38.101     C248.319,260.452,251,248.302,251,236C251,189.131,212.869,151,166,151z M231,236c0,6.664-1.031,13.266-3.013,19.561     l-81.548-81.548C152.734,172.031,159.336,171,166,171C201.841,171,231,200.159,231,236z M101,236     c0-6.664,1.031-13.266,3.013-19.561l81.548,81.548C179.266,299.969,172.664,301,166,301C130.159,301,101,271.841,101,236z      M225.497,295.497c-3.897,3.897-10.242,3.899-14.142,0c-20.903-20.903-73.919-73.919-104.853-104.853     c-3.899-3.898-3.899-10.243,0-14.142c3.901-3.901,10.243-3.899,14.142,0c0.689,0.689-7.082-7.082,104.853,104.853     C229.396,285.254,229.396,291.599,225.497,295.497z"/></g></g></g><g id="Layer_1"/></svg>