<?xml version="1.0" ?><!DOCTYPE svg  PUBLIC '-//W3C//DTD SVG 1.1//EN'  'http://www.w3.org/Graphics/SVG/1.1/DTD/svg11.dtd'><svg enable-background="new 0 0 128 128" id="Layer_1" version="1.1" viewBox="0 0 128 128" xml:space="preserve" xmlns="http://www.w3.org/2000/svg" xmlns:xlink="http://www.w3.org/1999/xlink"><circle cx="50.3" cy="51.3" fill="none" r="33.6" stroke="#3D3D3D" stroke-miterlimit="10" stroke-width="2"/><circle cx="50.3" cy="17" fill="#FFFFFF" r="6.3"/><circle cx="50.3" cy="17" fill="none" r="6.3" stroke="#3D3D3D" stroke-miterlimit="10" stroke-width="2"/><circle cx="36.2" cy="20.6" fill="#E875AE" r="6.3"/><circle cx="36.2" cy="20.6" fill="none" r="6.3" stroke="#3D3D3D" stroke-miterlimit="10" stroke-width="2"/><circle cx="25.6" cy="29.4" fill="#FFFFFF" r="6.3"/><circle cx="25.6" cy="29.4" fill="none" r="6.3" stroke="#3D3D3D" stroke-miterlimit="10" stroke-width="2"/><circle cx="18.5" cy="40" fill="#E875AE" r="6.3"/><circle cx="18.5" cy="40" fill="none" r="6.3" stroke="#3D3D3D" stroke-miterlimit="10" stroke-width="2"/><circle cx="63.4" cy="20.6" fill="#E875AE" r="6.3"/><circle cx="63.4" cy="20.6" fill="none" r="6.3" stroke="#3D3D3D" stroke-miterlimit="10" stroke-width="2"/><circle cx="74" cy="29.4" fill="#FFFFFF" r="6.3"/><circle cx="74" cy="29.4" fill="none" r="6.3" stroke="#3D3D3D" stroke-miterlimit="10" stroke-width="2"/><circle cx="81.1" cy="40" fill="#E875AE" r="6.3"/><circle cx="81.1" cy="40" fill="none" r="6.3" stroke="#3D3D3D" stroke-miterlimit="10" stroke-width="2"/><circle cx="16.7" cy="52.4" fill="#FFFFFF" r="6.3"/><circle cx="16.7" cy="52.4" fill="none" r="6.3" stroke="#3D3D3D" stroke-miterlimit="10" stroke-width="2"/><path d="M67.5,80.7c0,0,1.6,4.9-3,6.5  c-4.6,1.6-7.5,1.9-9.6,2.5c-2.1,0.6-5.8-1.5-5.5-3.6" fill="none" stroke="#3D3D3D" stroke-miterlimit="10" stroke-width="2"/><circle cx="85.5" cy="106.5" fill="none" r="7.3" stroke="#3D3D3D" stroke-miterlimit="10" stroke-width="2"/><path d="M110.8,111.8c-2.8,2.8-7.4,2.8-10.3,0  c-2.8-2.8-2.8-7.4,0-10.3c2.8-2.8,13.2-2.9,13.2-2.9S113.6,109,110.8,111.8z" fill="none" stroke="#3D3D3D" stroke-miterlimit="10" stroke-width="2"/><path d="M90.4,94.5l-3.9,3.9c-0.5,0.5-1.4,0.5-2,0l-3.9-3.9l1.9-2.5h5.8L90.4,94.5z" fill="#DD3B86"/><path d="M90.4,94.5l-3.9,3.9c-0.5,0.5-1.4,0.5-2,0l-3.9-3.9  l1.9-2.5h5.8L90.4,94.5z" fill="none" stroke="#3D3D3D" stroke-miterlimit="10" stroke-width="2"/></svg>